<mxfile host="app.diagrams.net" agent="Mozilla/5.0 (Windows NT 10.0; Win64; x64) AppleWebKit/537.36 (KHTML, like Gecko) Chrome/139.0.0.0 Safari/537.36" version="28.2.0">
  <diagram name="Página-1" id="9V0abgNr6W8b1tbWLRrC">
    <mxGraphModel dx="1123" dy="663" grid="1" gridSize="10" guides="1" tooltips="1" connect="1" arrows="1" fold="1" page="1" pageScale="1" pageWidth="3000" pageHeight="1700" math="0" shadow="0">
      <root>
        <mxCell id="0" />
        <mxCell id="1" parent="0" />
        <mxCell id="u9baPHzRedg1W3_j4SZ9-1" value="Text" style="text;html=1;align=center;verticalAlign=middle;resizable=0;points=[];autosize=1;strokeColor=none;fillColor=none;" parent="1" vertex="1">
          <mxGeometry x="255" y="88" width="50" height="30" as="geometry" />
        </mxCell>
        <mxCell id="u9baPHzRedg1W3_j4SZ9-66" value="&lt;h3 style=&quot;box-sizing: border-box; scroll-behavior: smooth; margin-top: 0px; margin-bottom: 0.5rem; line-height: 1.2; font-size: 1.875rem;&quot;&gt;&lt;font face=&quot;Helvetica&quot; style=&quot;color: light-dark(rgb(29, 33, 37), rgb(255, 255, 0));&quot;&gt;&lt;i style=&quot;&quot;&gt;Planes y acciones establecidos en medio ambiente y SST&lt;/i&gt;&lt;/font&gt;&lt;/h3&gt;" style="ellipse;whiteSpace=wrap;html=1;fillColor=#d5e8d4;strokeColor=light-dark(#000000,#33FF33);gradientColor=light-dark(#97D077,#66FF66);align=center;" parent="1" vertex="1">
          <mxGeometry x="1955" y="960" width="420" height="178" as="geometry" />
        </mxCell>
        <mxCell id="u9baPHzRedg1W3_j4SZ9-67" value="&lt;font face=&quot;Times New Roman&quot; style=&quot;color: light-dark(rgb(0, 0, 0), rgb(255, 255, 51)); font-size: 19px;&quot;&gt;&lt;b&gt;Contexto histórico y causas&lt;/b&gt;&lt;/font&gt;" style="ellipse;whiteSpace=wrap;html=1;fillColor=#f5f5f5;strokeColor=#666666;gradientColor=#b3b3b3;" parent="1" vertex="1">
          <mxGeometry x="1428" y="1005" width="170" height="95" as="geometry" />
        </mxCell>
        <mxCell id="u9baPHzRedg1W3_j4SZ9-68" value="&lt;h3&gt;&lt;font style=&quot;color: light-dark(rgb(0, 0, 0), rgb(51, 255, 255));&quot; face=&quot;Helvetica&quot;&gt;&lt;span&gt;&lt;i&gt;Marco Normativo&lt;/i&gt;&lt;/span&gt;&lt;/font&gt;&lt;/h3&gt;" style="ellipse;whiteSpace=wrap;html=1;fillColor=#f5f5f5;strokeColor=#666666;gradientColor=#b3b3b3;fontStyle=1" parent="1" vertex="1">
          <mxGeometry x="1657.5" y="673" width="199" height="116" as="geometry" />
        </mxCell>
        <mxCell id="u9baPHzRedg1W3_j4SZ9-69" value="&lt;h3&gt;&lt;font style=&quot;color: light-dark(rgb(29, 33, 37), rgb(255, 255, 0));&quot;&gt;&lt;b&gt;&lt;i&gt;Planes de SST&lt;/i&gt;&lt;/b&gt;&lt;/font&gt;&lt;/h3&gt;" style="ellipse;whiteSpace=wrap;html=1;fillColor=#f5f5f5;strokeColor=#666666;gradientColor=#b3b3b3;" parent="1" vertex="1">
          <mxGeometry x="2530" y="1170" width="170" height="95" as="geometry" />
        </mxCell>
        <mxCell id="u9baPHzRedg1W3_j4SZ9-70" value="&lt;h3&gt;&lt;font style=&quot;color: light-dark(rgb(0, 0, 0), rgb(102, 255, 102));&quot;&gt;&lt;b&gt;&lt;i&gt;Diagnóstico Inicial&lt;/i&gt;&lt;/b&gt;&lt;/font&gt;&lt;/h3&gt;" style="ellipse;whiteSpace=wrap;html=1;fillColor=#f5f5f5;strokeColor=#666666;gradientColor=#b3b3b3;" parent="1" vertex="1">
          <mxGeometry x="2241" y="668" width="170" height="95" as="geometry" />
        </mxCell>
        <mxCell id="u9baPHzRedg1W3_j4SZ9-71" value="&lt;h3&gt;&lt;font style=&quot;color: light-dark(rgb(29, 33, 37), rgb(255, 255, 0));&quot;&gt;&lt;b&gt;&lt;i&gt;Planes Ambientales&lt;/i&gt;&lt;/b&gt;&lt;/font&gt;&lt;/h3&gt;" style="ellipse;whiteSpace=wrap;html=1;fillColor=#f5f5f5;strokeColor=#666666;gradientColor=#b3b3b3;" parent="1" vertex="1">
          <mxGeometry x="2752" y="798" width="170" height="95" as="geometry" />
        </mxCell>
        <mxCell id="u9baPHzRedg1W3_j4SZ9-72" value="" style="curved=1;endArrow=classic;html=1;rounded=0;fillColor=#e6d0de;gradientColor=#d5739d;strokeColor=#996185;startSize=20;endSize=14;fontStyle=0;dashed=1;dashPattern=8 8;startArrow=none;startFill=0;entryX=0.013;entryY=0.412;entryDx=0;entryDy=0;entryPerimeter=0;exitX=0.6;exitY=0.013;exitDx=0;exitDy=0;exitPerimeter=0;" parent="1" source="u9baPHzRedg1W3_j4SZ9-66" target="u9baPHzRedg1W3_j4SZ9-70" edge="1">
          <mxGeometry width="50" height="50" relative="1" as="geometry">
            <mxPoint x="2063" y="1036" as="sourcePoint" />
            <mxPoint x="2097.5" y="892.1099999999999" as="targetPoint" />
            <Array as="points">
              <mxPoint x="2165" y="914" />
              <mxPoint x="2123" y="822" />
              <mxPoint x="2144" y="740" />
            </Array>
          </mxGeometry>
        </mxCell>
        <mxCell id="u9baPHzRedg1W3_j4SZ9-73" value="" style="curved=1;endArrow=classic;html=1;rounded=0;fillColor=#e6d0de;gradientColor=#d5739d;strokeColor=#996185;startSize=20;endSize=14;fontStyle=0;dashed=1;dashPattern=8 8;startArrow=none;startFill=0;" parent="1" target="u9baPHzRedg1W3_j4SZ9-68" edge="1" source="u9baPHzRedg1W3_j4SZ9-66">
          <mxGeometry width="50" height="50" relative="1" as="geometry">
            <mxPoint x="1937.99" y="1045" as="sourcePoint" />
            <mxPoint x="1764.9988941575305" y="870.0617369424644" as="targetPoint" />
            <Array as="points">
              <mxPoint x="2020" y="810" />
            </Array>
          </mxGeometry>
        </mxCell>
        <mxCell id="u9baPHzRedg1W3_j4SZ9-74" value="" style="curved=1;endArrow=classic;html=1;rounded=0;fillColor=#e6d0de;gradientColor=#d5739d;strokeColor=#996185;startSize=20;endSize=14;fontStyle=0;dashed=1;dashPattern=8 8;startArrow=none;startFill=0;entryX=0.272;entryY=0.022;entryDx=0;entryDy=0;entryPerimeter=0;exitX=0.652;exitY=0.964;exitDx=0;exitDy=0;exitPerimeter=0;" parent="1" target="u9baPHzRedg1W3_j4SZ9-69" edge="1" source="u9baPHzRedg1W3_j4SZ9-66">
          <mxGeometry width="50" height="50" relative="1" as="geometry">
            <mxPoint x="1962" y="1223" as="sourcePoint" />
            <mxPoint x="1994" y="1365" as="targetPoint" />
            <Array as="points">
              <mxPoint x="2550" y="1049" />
            </Array>
          </mxGeometry>
        </mxCell>
        <mxCell id="u9baPHzRedg1W3_j4SZ9-75" value="" style="curved=1;endArrow=classic;html=1;rounded=0;fillColor=#e6d0de;gradientColor=#d5739d;strokeColor=#996185;startSize=20;endSize=14;fontStyle=0;dashed=1;dashPattern=8 8;startArrow=none;startFill=0;exitX=0.992;exitY=0.365;exitDx=0;exitDy=0;exitPerimeter=0;" parent="1" target="u9baPHzRedg1W3_j4SZ9-71" edge="1" source="u9baPHzRedg1W3_j4SZ9-66">
          <mxGeometry width="50" height="50" relative="1" as="geometry">
            <mxPoint x="2181" y="1189" as="sourcePoint" />
            <mxPoint x="2210" y="1333" as="targetPoint" />
            <Array as="points">
              <mxPoint x="2540" y="1000" />
            </Array>
          </mxGeometry>
        </mxCell>
        <mxCell id="u9baPHzRedg1W3_j4SZ9-76" value="" style="curved=1;endArrow=classic;html=1;rounded=0;fillColor=#e6d0de;gradientColor=#d5739d;strokeColor=#996185;startSize=20;endSize=14;fontStyle=0;dashed=1;dashPattern=8 8;startArrow=none;startFill=0;entryX=1;entryY=0.5;entryDx=0;entryDy=0;" parent="1" source="u9baPHzRedg1W3_j4SZ9-66" target="u9baPHzRedg1W3_j4SZ9-67" edge="1">
          <mxGeometry width="50" height="50" relative="1" as="geometry">
            <mxPoint x="1825.07641318699" y="1297.5432774797837" as="sourcePoint" />
            <mxPoint x="1625" y="1322" as="targetPoint" />
            <Array as="points">
              <mxPoint x="1830" y="940" />
            </Array>
          </mxGeometry>
        </mxCell>
        <mxCell id="u9baPHzRedg1W3_j4SZ9-77" value="&lt;font style=&quot;color: light-dark(rgb(0, 0, 0), rgb(51, 255, 255)); font-size: 13px;&quot;&gt;Desigualdad social&lt;/font&gt;" style="ellipse;whiteSpace=wrap;html=1;fillColor=#dae8fc;strokeColor=#6c8ebf;gradientColor=#7ea6e0;" parent="1" vertex="1">
          <mxGeometry x="1250" y="920" width="159" height="86" as="geometry" />
        </mxCell>
        <mxCell id="u9baPHzRedg1W3_j4SZ9-78" value="&lt;font style=&quot;color: light-dark(rgb(0, 0, 0), rgb(51, 255, 255)); font-size: 13px;&quot;&gt;Problemas de tierras y desplazamiento&lt;/font&gt;" style="ellipse;whiteSpace=wrap;html=1;fillColor=#dae8fc;strokeColor=#6c8ebf;gradientColor=#7ea6e0;" parent="1" vertex="1">
          <mxGeometry x="1200" y="1060" width="168" height="104" as="geometry" />
        </mxCell>
        <mxCell id="u9baPHzRedg1W3_j4SZ9-79" value="&lt;font style=&quot;color: light-dark(rgb(0, 0, 0), rgb(51, 255, 255)); font-size: 13px;&quot;&gt;Desigualdad social&lt;/font&gt;" style="ellipse;whiteSpace=wrap;html=1;fillColor=#dae8fc;strokeColor=#6c8ebf;gradientColor=#7ea6e0;" parent="1" vertex="1">
          <mxGeometry x="1660" y="1122" width="164" height="88" as="geometry" />
        </mxCell>
        <mxCell id="u9baPHzRedg1W3_j4SZ9-80" value="&lt;font style=&quot;color: light-dark(rgb(0, 0, 0), rgb(51, 255, 255)); font-size: 13px;&quot;&gt;Influencia del narcotráfico&lt;/font&gt;" style="ellipse;whiteSpace=wrap;html=1;fillColor=#dae8fc;strokeColor=#6c8ebf;gradientColor=#7ea6e0;" parent="1" vertex="1">
          <mxGeometry x="1310" y="1180" width="170" height="90" as="geometry" />
        </mxCell>
        <mxCell id="u9baPHzRedg1W3_j4SZ9-81" value="&lt;font style=&quot;color: light-dark(rgb(0, 0, 0), rgb(51, 255, 255)); font-size: 13px;&quot;&gt;Exclusión política&lt;/font&gt;" style="ellipse;whiteSpace=wrap;html=1;fillColor=#dae8fc;strokeColor=#6c8ebf;gradientColor=#7ea6e0;" parent="1" vertex="1">
          <mxGeometry x="1500" y="1210" width="160" height="86" as="geometry" />
        </mxCell>
        <mxCell id="u9baPHzRedg1W3_j4SZ9-83" value="&lt;font style=&quot;color: light-dark(rgb(130, 179, 102), rgb(102, 255, 255));&quot;&gt;&lt;strong data-start=&quot;463&quot; data-end=&quot;489&quot; style=&quot;&quot;&gt;Normas internacionales&lt;/strong&gt;: ISO 14001 (ambiental), ISO 45001 (SST)&lt;/font&gt;" style="ellipse;whiteSpace=wrap;html=1;fillColor=#f8cecc;strokeColor=light-dark(#B85450,#33FFFF);gradientColor=#ea6b66;fontStyle=1" parent="1" vertex="1">
          <mxGeometry x="1752.5" y="554" width="165" height="89" as="geometry" />
        </mxCell>
        <mxCell id="u9baPHzRedg1W3_j4SZ9-84" value="&lt;font style=&quot;color: light-dark(rgb(0, 0, 0), rgb(102, 255, 255));&quot;&gt;&lt;strong data-start=&quot;534&quot; data-end=&quot;559&quot;&gt;Normatividad nacional&lt;/strong&gt;: Decreto 1072/2015 (COL)&lt;/font&gt;" style="ellipse;whiteSpace=wrap;html=1;fillColor=#f8cecc;strokeColor=light-dark(#B85450,#66FFFF);gradientColor=#ea6b66;fontStyle=1" parent="1" vertex="1">
          <mxGeometry x="1527.5" y="520" width="167" height="106" as="geometry" />
        </mxCell>
        <mxCell id="u9baPHzRedg1W3_j4SZ9-85" value="&lt;font style=&quot;color: light-dark(rgb(0, 0, 0), rgb(102, 255, 255));&quot;&gt;&lt;strong data-start=&quot;589&quot; data-end=&quot;608&quot;&gt;Normas técnicas&lt;/strong&gt;: GTC 45, NTC aplicables&lt;/font&gt;" style="ellipse;whiteSpace=wrap;html=1;fillColor=#f8cecc;strokeColor=light-dark(#B85450,#66FFFF);gradientColor=#ea6b66;fontStyle=1" parent="1" vertex="1">
          <mxGeometry x="1380" y="646" width="180" height="100" as="geometry" />
        </mxCell>
        <mxCell id="u9baPHzRedg1W3_j4SZ9-86" value="&lt;font style=&quot;font-size: 13px; color: light-dark(rgb(0, 0, 0), rgb(102, 255, 255));&quot;&gt;Requisitos legales y contractuales&lt;/font&gt;" style="ellipse;whiteSpace=wrap;html=1;fillColor=#f8cecc;strokeColor=light-dark(#B85450,#66FFFF);gradientColor=#ea6b66;fontStyle=1" parent="1" vertex="1">
          <mxGeometry x="1417.5" y="776.5" width="200" height="94" as="geometry" />
        </mxCell>
        <mxCell id="u9baPHzRedg1W3_j4SZ9-90" value="&lt;font style=&quot;color: light-dark(rgb(0, 0, 0), rgb(51, 255, 255)); font-size: 13px;&quot;&gt;Factores de riesgo ergonómico y psicosocial&lt;/font&gt;" style="ellipse;whiteSpace=wrap;html=1;fillColor=#d5e8d4;strokeColor=#82b366;gradientColor=light-dark(#97D077,#295A52);fontStyle=1" parent="1" vertex="1">
          <mxGeometry x="2510" y="1460" width="210" height="120" as="geometry" />
        </mxCell>
        <mxCell id="u9baPHzRedg1W3_j4SZ9-91" value="&lt;font style=&quot;color: light-dark(rgb(0, 0, 0), rgb(51, 255, 255)); font-size: 13px;&quot;&gt;&lt;b&gt;Gestión de contratistas y visitantes&lt;/b&gt;&lt;/font&gt;" style="ellipse;whiteSpace=wrap;html=1;fillColor=#d5e8d4;strokeColor=#82b366;gradientColor=light-dark(#97D077,#295A52);" parent="1" vertex="1">
          <mxGeometry x="2750" y="1413" width="196" height="107" as="geometry" />
        </mxCell>
        <mxCell id="u9baPHzRedg1W3_j4SZ9-92" value="&lt;font style=&quot;font-size: 13px; color: light-dark(rgb(0, 0, 0), rgb(51, 255, 255));&quot;&gt;&lt;b&gt;Inspecciones planeadas&lt;/b&gt;&lt;/font&gt;" style="ellipse;whiteSpace=wrap;html=1;fillColor=#d5e8d4;strokeColor=#82b366;gradientColor=light-dark(#97D077,#295A52);" parent="1" vertex="1">
          <mxGeometry x="2922" y="1270" width="178" height="106" as="geometry" />
        </mxCell>
        <mxCell id="u9baPHzRedg1W3_j4SZ9-93" value="&lt;font style=&quot;color: light-dark(rgb(0, 0, 0), rgb(51, 255, 255));&quot;&gt;&lt;strong data-end=&quot;1241&quot; data-start=&quot;1217&quot;&gt;Entrega y uso de EPP&lt;/strong&gt; (Elementos de Protección Personal)&lt;/font&gt;" style="ellipse;whiteSpace=wrap;html=1;fillColor=#d5e8d4;strokeColor=#82b366;gradientColor=light-dark(#97D077,#295A52);" parent="1" vertex="1">
          <mxGeometry x="2887.5" y="1100" width="200" height="113.5" as="geometry" />
        </mxCell>
        <mxCell id="u9baPHzRedg1W3_j4SZ9-94" value="&lt;font style=&quot;color: light-dark(rgb(0, 0, 0), rgb(51, 255, 255));&quot;&gt;&lt;strong data-end=&quot;1199&quot; data-start=&quot;1171&quot;&gt;Capacitación y formación&lt;/strong&gt; del personal&lt;/font&gt;" style="ellipse;whiteSpace=wrap;html=1;fillColor=#d5e8d4;strokeColor=#82b366;gradientColor=light-dark(#97D077,#295A52);" parent="1" vertex="1">
          <mxGeometry x="2719" y="980" width="191" height="110" as="geometry" />
        </mxCell>
        <mxCell id="u9baPHzRedg1W3_j4SZ9-95" value="&lt;font style=&quot;color: light-dark(rgb(0, 0, 0), rgb(51, 255, 51));&quot;&gt;&lt;b&gt;Identificación de &lt;span data-end=&quot;775&quot; data-start=&quot;740&quot;&gt;aspectos e impactos ambientales&lt;/span&gt;&lt;/b&gt;&lt;/font&gt;" style="ellipse;whiteSpace=wrap;html=1;fillColor=#e6d0de;strokeColor=#996185;gradientColor=#d5739d;" parent="1" vertex="1">
          <mxGeometry x="1968" y="520" width="175" height="99" as="geometry" />
        </mxCell>
        <mxCell id="u9baPHzRedg1W3_j4SZ9-96" value="&lt;font style=&quot;color: light-dark(rgb(0, 0, 0), rgb(51, 255, 51));&quot;&gt;&lt;b&gt;Identificación de &lt;span data-end=&quot;834&quot; data-start=&quot;798&quot;&gt;peligros y evaluación de riesgos&lt;/span&gt; (IPER)&lt;/b&gt;&lt;/font&gt;" style="ellipse;whiteSpace=wrap;html=1;fillColor=#e6d0de;strokeColor=#996185;gradientColor=#d5739d;" parent="1" vertex="1">
          <mxGeometry x="2200" y="470" width="175" height="99" as="geometry" />
        </mxCell>
        <mxCell id="u9baPHzRedg1W3_j4SZ9-97" value="&lt;font style=&quot;color: light-dark(rgb(0, 0, 0), rgb(51, 255, 51));&quot;&gt;&lt;b&gt;Establecimiento de &lt;span data-end=&quot;879&quot; data-start=&quot;865&quot;&gt;línea base&lt;/span&gt;&lt;/b&gt;&lt;/font&gt;" style="ellipse;whiteSpace=wrap;html=1;fillColor=#e6d0de;strokeColor=#996185;gradientColor=#d5739d;" parent="1" vertex="1">
          <mxGeometry x="2485" y="544" width="175" height="99" as="geometry" />
        </mxCell>
        <mxCell id="u9baPHzRedg1W3_j4SZ9-98" value="&lt;font face=&quot;Helvetica&quot; style=&quot;color: light-dark(rgb(0, 0, 0), rgb(51, 255, 51));&quot;&gt;&lt;b&gt;Definición de &lt;span data-end=&quot;923&quot; data-start=&quot;898&quot;&gt;indicadores iniciales&lt;/span&gt;&lt;/b&gt;&lt;/font&gt;" style="ellipse;whiteSpace=wrap;html=1;fillColor=#e6d0de;strokeColor=#996185;gradientColor=#d5739d;" parent="1" vertex="1">
          <mxGeometry x="2487" y="719" width="175" height="99" as="geometry" />
        </mxCell>
        <mxCell id="u9baPHzRedg1W3_j4SZ9-100" value="" style="curved=1;endArrow=classic;html=1;rounded=0;entryX=0.006;entryY=0.299;entryDx=0;entryDy=0;entryPerimeter=0;fillColor=#ffcd28;gradientColor=#ffa500;strokeColor=#d79b00;" parent="1" target="u9baPHzRedg1W3_j4SZ9-79" edge="1">
          <mxGeometry width="50" height="50" relative="1" as="geometry">
            <mxPoint x="1590" y="1073" as="sourcePoint" />
            <mxPoint x="1640" y="1023" as="targetPoint" />
            <Array as="points">
              <mxPoint x="1640" y="1073" />
              <mxPoint x="1580" y="1099" />
            </Array>
          </mxGeometry>
        </mxCell>
        <mxCell id="u9baPHzRedg1W3_j4SZ9-101" value="" style="curved=1;endArrow=classic;html=1;rounded=0;entryX=0.383;entryY=0.007;entryDx=0;entryDy=0;entryPerimeter=0;fillColor=#ffcd28;gradientColor=#ffa500;strokeColor=#d79b00;exitX=0.623;exitY=0.99;exitDx=0;exitDy=0;exitPerimeter=0;" parent="1" source="u9baPHzRedg1W3_j4SZ9-67" target="u9baPHzRedg1W3_j4SZ9-81" edge="1">
          <mxGeometry width="50" height="50" relative="1" as="geometry">
            <mxPoint x="1529" y="1103" as="sourcePoint" />
            <mxPoint x="1566" y="1149" as="targetPoint" />
            <Array as="points">
              <mxPoint x="1571" y="1125" />
              <mxPoint x="1537" y="1141" />
            </Array>
          </mxGeometry>
        </mxCell>
        <mxCell id="u9baPHzRedg1W3_j4SZ9-102" value="" style="curved=1;endArrow=classic;html=1;rounded=0;entryX=0.487;entryY=0;entryDx=0;entryDy=0;entryPerimeter=0;fillColor=#ffcd28;gradientColor=#ffa500;strokeColor=#d79b00;" parent="1" source="u9baPHzRedg1W3_j4SZ9-67" target="u9baPHzRedg1W3_j4SZ9-80" edge="1">
          <mxGeometry width="50" height="50" relative="1" as="geometry">
            <mxPoint x="1392" y="1104" as="sourcePoint" />
            <mxPoint x="1431" y="1189" as="targetPoint" />
            <Array as="points">
              <mxPoint x="1482" y="1132" />
              <mxPoint x="1410" y="1138" />
            </Array>
          </mxGeometry>
        </mxCell>
        <mxCell id="u9baPHzRedg1W3_j4SZ9-103" value="" style="curved=1;endArrow=classic;html=1;rounded=0;entryX=0.517;entryY=0.015;entryDx=0;entryDy=0;entryPerimeter=0;fillColor=#ffcd28;gradientColor=#ffa500;strokeColor=#d79b00;exitX=0.008;exitY=0.597;exitDx=0;exitDy=0;exitPerimeter=0;" parent="1" source="u9baPHzRedg1W3_j4SZ9-67" target="u9baPHzRedg1W3_j4SZ9-78" edge="1">
          <mxGeometry width="50" height="50" relative="1" as="geometry">
            <mxPoint x="1398" y="1005" as="sourcePoint" />
            <mxPoint x="1326" y="1097" as="targetPoint" />
            <Array as="points">
              <mxPoint x="1374" y="1092" />
              <mxPoint x="1344" y="1033" />
            </Array>
          </mxGeometry>
        </mxCell>
        <mxCell id="u9baPHzRedg1W3_j4SZ9-104" value="" style="curved=1;endArrow=classic;html=1;rounded=0;entryX=0.708;entryY=0.021;entryDx=0;entryDy=0;entryPerimeter=0;fillColor=#ffcd28;gradientColor=#ffa500;strokeColor=#d79b00;exitX=0.382;exitY=0;exitDx=0;exitDy=0;exitPerimeter=0;" parent="1" source="u9baPHzRedg1W3_j4SZ9-67" target="u9baPHzRedg1W3_j4SZ9-77" edge="1">
          <mxGeometry width="50" height="50" relative="1" as="geometry">
            <mxPoint x="1480" y="910" as="sourcePoint" />
            <mxPoint x="1362" y="945" as="targetPoint" />
            <Array as="points">
              <mxPoint x="1428" y="992" />
              <mxPoint x="1426" y="900" />
            </Array>
          </mxGeometry>
        </mxCell>
        <mxCell id="u9baPHzRedg1W3_j4SZ9-105" value="" style="curved=1;endArrow=classic;html=1;rounded=0;fillColor=#ffcd28;gradientColor=#ffa500;strokeColor=#d79b00;entryX=0;entryY=0.5;entryDx=0;entryDy=0;exitX=0.518;exitY=0;exitDx=0;exitDy=0;exitPerimeter=0;" parent="1" source="u9baPHzRedg1W3_j4SZ9-69" target="u9baPHzRedg1W3_j4SZ9-94" edge="1">
          <mxGeometry width="50" height="50" relative="1" as="geometry">
            <mxPoint x="2616" y="1165" as="sourcePoint" />
            <mxPoint x="2666" y="1115" as="targetPoint" />
            <Array as="points">
              <mxPoint x="2669" y="1115" />
              <mxPoint x="2600" y="1100" />
            </Array>
          </mxGeometry>
        </mxCell>
        <mxCell id="u9baPHzRedg1W3_j4SZ9-106" value="" style="curved=1;endArrow=classic;html=1;rounded=0;fillColor=#ffcd28;gradientColor=#ffa500;strokeColor=#d79b00;entryX=0.073;entryY=0.756;entryDx=0;entryDy=0;entryPerimeter=0;exitX=0.954;exitY=0.253;exitDx=0;exitDy=0;exitPerimeter=0;" parent="1" source="u9baPHzRedg1W3_j4SZ9-69" target="u9baPHzRedg1W3_j4SZ9-93" edge="1">
          <mxGeometry width="50" height="50" relative="1" as="geometry">
            <mxPoint x="2686" y="1190" as="sourcePoint" />
            <mxPoint x="2701" y="1100" as="targetPoint" />
            <Array as="points">
              <mxPoint x="2769" y="1175" />
              <mxPoint x="2810" y="1250" />
            </Array>
          </mxGeometry>
        </mxCell>
        <mxCell id="u9baPHzRedg1W3_j4SZ9-107" value="" style="curved=1;endArrow=classic;html=1;rounded=0;fillColor=#ffcd28;gradientColor=#ffa500;strokeColor=#d79b00;entryX=0.03;entryY=0.676;entryDx=0;entryDy=0;entryPerimeter=0;exitX=0.983;exitY=0.68;exitDx=0;exitDy=0;exitPerimeter=0;" parent="1" source="u9baPHzRedg1W3_j4SZ9-69" target="u9baPHzRedg1W3_j4SZ9-92" edge="1">
          <mxGeometry width="50" height="50" relative="1" as="geometry">
            <mxPoint x="2693" y="1241" as="sourcePoint" />
            <mxPoint x="2745" y="1149" as="targetPoint" />
            <Array as="points">
              <mxPoint x="2770" y="1222" />
              <mxPoint x="2800" y="1370" />
            </Array>
          </mxGeometry>
        </mxCell>
        <mxCell id="u9baPHzRedg1W3_j4SZ9-108" value="" style="curved=1;endArrow=classic;html=1;rounded=0;fillColor=#ffcd28;gradientColor=#ffa500;strokeColor=#d79b00;exitX=0.658;exitY=0.942;exitDx=0;exitDy=0;exitPerimeter=0;" parent="1" source="u9baPHzRedg1W3_j4SZ9-69" target="u9baPHzRedg1W3_j4SZ9-91" edge="1">
          <mxGeometry width="50" height="50" relative="1" as="geometry">
            <mxPoint x="2621" y="1279" as="sourcePoint" />
            <mxPoint x="2764" y="1247" as="targetPoint" />
            <Array as="points">
              <mxPoint x="2730" y="1290" />
              <mxPoint x="2670" y="1360" />
            </Array>
          </mxGeometry>
        </mxCell>
        <mxCell id="u9baPHzRedg1W3_j4SZ9-109" value="" style="curved=1;endArrow=classic;html=1;rounded=0;fillColor=#ffcd28;gradientColor=#ffa500;strokeColor=#d79b00;exitX=0.491;exitY=0.986;exitDx=0;exitDy=0;exitPerimeter=0;entryX=0.272;entryY=0.087;entryDx=0;entryDy=0;entryPerimeter=0;" parent="1" source="u9baPHzRedg1W3_j4SZ9-69" target="u9baPHzRedg1W3_j4SZ9-90" edge="1">
          <mxGeometry width="50" height="50" relative="1" as="geometry">
            <mxPoint x="2539" y="1272" as="sourcePoint" />
            <mxPoint x="2668" y="1327" as="targetPoint" />
            <Array as="points">
              <mxPoint x="2623" y="1282" />
              <mxPoint x="2630" y="1340" />
              <mxPoint x="2510" y="1400" />
            </Array>
          </mxGeometry>
        </mxCell>
        <mxCell id="u9baPHzRedg1W3_j4SZ9-113" value="" style="curved=1;endArrow=classic;html=1;rounded=0;fillColor=#ffcd28;gradientColor=#ffa500;strokeColor=#d79b00;entryX=0.461;entryY=0.975;entryDx=0;entryDy=0;entryPerimeter=0;exitX=0.975;exitY=0.287;exitDx=0;exitDy=0;exitPerimeter=0;fontStyle=1" parent="1" source="u9baPHzRedg1W3_j4SZ9-68" target="u9baPHzRedg1W3_j4SZ9-83" edge="1">
          <mxGeometry width="50" height="50" relative="1" as="geometry">
            <mxPoint x="1792.5" y="700" as="sourcePoint" />
            <mxPoint x="1842.5" y="650" as="targetPoint" />
            <Array as="points">
              <mxPoint x="1842.5" y="700" />
              <mxPoint x="1792.5" y="650" />
            </Array>
          </mxGeometry>
        </mxCell>
        <mxCell id="u9baPHzRedg1W3_j4SZ9-115" value="" style="curved=1;endArrow=classic;html=1;rounded=0;fillColor=#ffcd28;gradientColor=#ffa500;strokeColor=#d79b00;exitX=0.02;exitY=0.674;exitDx=0;exitDy=0;exitPerimeter=0;entryX=0.976;entryY=0.284;entryDx=0;entryDy=0;entryPerimeter=0;fontStyle=1" parent="1" source="u9baPHzRedg1W3_j4SZ9-68" target="u9baPHzRedg1W3_j4SZ9-86" edge="1">
          <mxGeometry width="50" height="50" relative="1" as="geometry">
            <mxPoint x="1617.5" y="682" as="sourcePoint" />
            <mxPoint x="1573.5" y="806" as="targetPoint" />
            <Array as="points">
              <mxPoint x="1621.5" y="738" />
              <mxPoint x="1654.5" y="809" />
            </Array>
          </mxGeometry>
        </mxCell>
        <mxCell id="u9baPHzRedg1W3_j4SZ9-116" value="" style="curved=1;endArrow=classic;html=1;rounded=0;exitX=0.166;exitY=0.159;exitDx=0;exitDy=0;exitPerimeter=0;entryX=0.507;entryY=0.022;entryDx=0;entryDy=0;entryPerimeter=0;fillColor=#ffcd28;gradientColor=#ffa500;strokeColor=#d79b00;fontStyle=1" parent="1" source="u9baPHzRedg1W3_j4SZ9-68" target="u9baPHzRedg1W3_j4SZ9-85" edge="1">
          <mxGeometry width="50" height="50" relative="1" as="geometry">
            <mxPoint x="1678.5" y="689" as="sourcePoint" />
            <mxPoint x="1580.5" y="650" as="targetPoint" />
            <Array as="points">
              <mxPoint x="1644.5" y="699" />
              <mxPoint x="1625.5" y="649" />
              <mxPoint x="1538.5" y="641" />
            </Array>
          </mxGeometry>
        </mxCell>
        <mxCell id="u9baPHzRedg1W3_j4SZ9-117" value="" style="curved=1;endArrow=classic;html=1;rounded=0;fillColor=#ffcd28;gradientColor=#ffa500;strokeColor=#d79b00;exitX=0.55;exitY=0.013;exitDx=0;exitDy=0;exitPerimeter=0;fontStyle=1" parent="1" source="u9baPHzRedg1W3_j4SZ9-68" target="u9baPHzRedg1W3_j4SZ9-84" edge="1">
          <mxGeometry width="50" height="50" relative="1" as="geometry">
            <mxPoint x="1751.5" y="678" as="sourcePoint" />
            <mxPoint x="1801.5" y="628" as="targetPoint" />
            <Array as="points">
              <mxPoint x="1714.5" y="684" />
              <mxPoint x="1767.5" y="635" />
              <mxPoint x="1721.5" y="619" />
            </Array>
          </mxGeometry>
        </mxCell>
        <mxCell id="u9baPHzRedg1W3_j4SZ9-118" value="" style="curved=1;endArrow=classic;html=1;rounded=0;fillColor=#ffcd28;gradientColor=#ffa500;strokeColor=#d79b00;exitX=0.086;exitY=0.23;exitDx=0;exitDy=0;exitPerimeter=0;entryX=0.757;entryY=0.913;entryDx=0;entryDy=0;entryPerimeter=0;" parent="1" source="u9baPHzRedg1W3_j4SZ9-70" target="u9baPHzRedg1W3_j4SZ9-95" edge="1">
          <mxGeometry width="50" height="50" relative="1" as="geometry">
            <mxPoint x="2315" y="696" as="sourcePoint" />
            <mxPoint x="2240" y="582" as="targetPoint" />
            <Array as="points">
              <mxPoint x="2260" y="655" />
              <mxPoint x="2101" y="721" />
            </Array>
          </mxGeometry>
        </mxCell>
        <mxCell id="u9baPHzRedg1W3_j4SZ9-119" value="" style="curved=1;endArrow=classic;html=1;rounded=0;fillColor=#ffcd28;gradientColor=#ffa500;strokeColor=#d79b00;entryX=0.681;entryY=0.974;entryDx=0;entryDy=0;entryPerimeter=0;exitX=0.516;exitY=-0.011;exitDx=0;exitDy=0;exitPerimeter=0;" parent="1" source="u9baPHzRedg1W3_j4SZ9-70" target="u9baPHzRedg1W3_j4SZ9-96" edge="1">
          <mxGeometry width="50" height="50" relative="1" as="geometry">
            <mxPoint x="2387" y="672" as="sourcePoint" />
            <mxPoint x="2326" y="542" as="targetPoint" />
            <Array as="points">
              <mxPoint x="2397" y="628" />
              <mxPoint x="2261" y="623" />
            </Array>
          </mxGeometry>
        </mxCell>
        <mxCell id="u9baPHzRedg1W3_j4SZ9-120" value="" style="curved=1;endArrow=classic;html=1;rounded=0;entryX=0.15;entryY=0.876;entryDx=0;entryDy=0;entryPerimeter=0;exitX=0.897;exitY=0.197;exitDx=0;exitDy=0;exitPerimeter=0;fillColor=#ffcd28;gradientColor=#ffa500;strokeColor=#d79b00;" parent="1" source="u9baPHzRedg1W3_j4SZ9-70" target="u9baPHzRedg1W3_j4SZ9-97" edge="1">
          <mxGeometry width="50" height="50" relative="1" as="geometry">
            <mxPoint x="2465" y="690" as="sourcePoint" />
            <mxPoint x="2515" y="640" as="targetPoint" />
            <Array as="points">
              <mxPoint x="2476" y="701" />
              <mxPoint x="2465" y="640" />
            </Array>
          </mxGeometry>
        </mxCell>
        <mxCell id="u9baPHzRedg1W3_j4SZ9-121" value="" style="curved=1;endArrow=classic;html=1;rounded=0;fillColor=#ffcd28;gradientColor=#ffa500;strokeColor=#d79b00;exitX=0.856;exitY=0.865;exitDx=0;exitDy=0;exitPerimeter=0;" parent="1" source="u9baPHzRedg1W3_j4SZ9-70" target="u9baPHzRedg1W3_j4SZ9-98" edge="1">
          <mxGeometry width="50" height="50" relative="1" as="geometry">
            <mxPoint x="2456" y="759" as="sourcePoint" />
            <mxPoint x="2506" y="709" as="targetPoint" />
            <Array as="points">
              <mxPoint x="2422" y="782" />
              <mxPoint x="2485" y="727" />
            </Array>
          </mxGeometry>
        </mxCell>
        <mxCell id="u9baPHzRedg1W3_j4SZ9-123" value="&lt;font style=&quot;color: light-dark(rgb(0, 0, 0), rgb(255, 255, 102));&quot;&gt;&lt;b style=&quot;&quot;&gt;&lt;span style=&quot;&quot; data-end=&quot;1001&quot; data-start=&quot;969&quot;&gt;Gestión integral de residuos&lt;/span&gt; (PGRS)&lt;/b&gt;&lt;/font&gt;" style="ellipse;whiteSpace=wrap;html=1;fillColor=#d5e8d4;strokeColor=#82b366;gradientColor=light-dark(#97D077,#0000CC);" parent="1" vertex="1">
          <mxGeometry x="2900" y="580" width="175" height="99" as="geometry" />
        </mxCell>
        <mxCell id="u9baPHzRedg1W3_j4SZ9-124" value="&lt;font style=&quot;color: light-dark(rgb(0, 0, 0), rgb(255, 255, 102));&quot;&gt;&lt;b style=&quot;&quot;&gt;&lt;span style=&quot;&quot; data-end=&quot;1030&quot; data-start=&quot;1013&quot;&gt;Uso eficiente&lt;/span&gt; de agua y energía&lt;/b&gt;&lt;/font&gt;" style="ellipse;whiteSpace=wrap;html=1;fillColor=#d5e8d4;strokeColor=#82b366;gradientColor=light-dark(#97D077,#0000CC);" parent="1" vertex="1">
          <mxGeometry x="3029" y="681.5" width="175" height="99" as="geometry" />
        </mxCell>
        <mxCell id="u9baPHzRedg1W3_j4SZ9-125" value="&lt;div&gt;&lt;font style=&quot;color: light-dark(rgb(0, 0, 0), rgb(255, 255, 102));&quot;&gt;&lt;b style=&quot;&quot;&gt;Control de emisiones y ruido&lt;/b&gt;&lt;/font&gt;&lt;/div&gt;" style="ellipse;whiteSpace=wrap;html=1;fillColor=#d5e8d4;strokeColor=#82b366;gradientColor=light-dark(#97D077,#0000CC);" parent="1" vertex="1">
          <mxGeometry x="3100" y="801" width="175" height="99" as="geometry" />
        </mxCell>
        <mxCell id="u9baPHzRedg1W3_j4SZ9-126" value="&lt;div&gt;&lt;font style=&quot;font-size: 13px; color: light-dark(rgb(0, 0, 0), rgb(255, 255, 102));&quot;&gt;&lt;b style=&quot;&quot;&gt;Compras y contrataciones sostenibles&lt;/b&gt;&lt;/font&gt;&lt;/div&gt;" style="ellipse;whiteSpace=wrap;html=1;fillColor=#d5e8d4;strokeColor=#82b366;gradientColor=light-dark(#97D077,#0000CC);" parent="1" vertex="1">
          <mxGeometry x="3040" y="931" width="175" height="99" as="geometry" />
        </mxCell>
        <mxCell id="u9baPHzRedg1W3_j4SZ9-127" value="" style="curved=1;endArrow=classic;html=1;rounded=0;fillColor=#ffcd28;gradientColor=#ffa500;strokeColor=#d79b00;entryX=0;entryY=1;entryDx=0;entryDy=0;exitX=0.449;exitY=0.016;exitDx=0;exitDy=0;exitPerimeter=0;" parent="1" source="u9baPHzRedg1W3_j4SZ9-71" target="u9baPHzRedg1W3_j4SZ9-123" edge="1">
          <mxGeometry width="50" height="50" relative="1" as="geometry">
            <mxPoint x="2860" y="875" as="sourcePoint" />
            <mxPoint x="2910" y="825" as="targetPoint" />
            <Array as="points">
              <mxPoint x="2859" y="736" />
              <mxPoint x="2810" y="700" />
            </Array>
          </mxGeometry>
        </mxCell>
        <mxCell id="u9baPHzRedg1W3_j4SZ9-128" value="" style="curved=1;endArrow=classic;html=1;rounded=0;fillColor=#ffcd28;gradientColor=#ffa500;strokeColor=#d79b00;entryX=0.013;entryY=0.553;entryDx=0;entryDy=0;entryPerimeter=0;exitX=0.92;exitY=0.248;exitDx=0;exitDy=0;exitPerimeter=0;" parent="1" source="u9baPHzRedg1W3_j4SZ9-71" target="u9baPHzRedg1W3_j4SZ9-124" edge="1">
          <mxGeometry width="50" height="50" relative="1" as="geometry">
            <mxPoint x="2953" y="914" as="sourcePoint" />
            <mxPoint x="2926" y="806" as="targetPoint" />
            <Array as="points">
              <mxPoint x="2929" y="756" />
              <mxPoint x="2979" y="796" />
            </Array>
          </mxGeometry>
        </mxCell>
        <mxCell id="u9baPHzRedg1W3_j4SZ9-129" value="" style="curved=1;endArrow=classic;html=1;rounded=0;fillColor=#ffcd28;gradientColor=#ffa500;strokeColor=#d79b00;" parent="1" source="u9baPHzRedg1W3_j4SZ9-71" target="u9baPHzRedg1W3_j4SZ9-125" edge="1">
          <mxGeometry width="50" height="50" relative="1" as="geometry">
            <mxPoint x="2961" y="1001" as="sourcePoint" />
            <mxPoint x="3036" y="889" as="targetPoint" />
            <Array as="points">
              <mxPoint x="3020" y="840" />
              <mxPoint x="3036" y="913" />
            </Array>
          </mxGeometry>
        </mxCell>
        <mxCell id="u9baPHzRedg1W3_j4SZ9-130" value="" style="curved=1;endArrow=classic;html=1;rounded=0;fillColor=#ffcd28;gradientColor=#ffa500;strokeColor=#d79b00;exitX=0.283;exitY=0.981;exitDx=0;exitDy=0;exitPerimeter=0;" parent="1" source="u9baPHzRedg1W3_j4SZ9-71" target="u9baPHzRedg1W3_j4SZ9-126" edge="1">
          <mxGeometry width="50" height="50" relative="1" as="geometry">
            <mxPoint x="2778" y="990" as="sourcePoint" />
            <mxPoint x="2964" y="1015" as="targetPoint" />
            <Array as="points">
              <mxPoint x="2900" y="900" />
              <mxPoint x="2939" y="956" />
            </Array>
          </mxGeometry>
        </mxCell>
        <mxCell id="SYa3BNiDsuXG8DO_IZk4-1" value="&lt;h3&gt;Operación y Control&lt;/h3&gt;" style="ellipse;whiteSpace=wrap;html=1;fillColor=#f5f5f5;strokeColor=#666666;gradientColor=#b3b3b3;fontStyle=1;fontColor=light-dark(#000000,#66FFFF);" vertex="1" parent="1">
          <mxGeometry x="2442.5" y="1634" width="170" height="95" as="geometry" />
        </mxCell>
        <mxCell id="SYa3BNiDsuXG8DO_IZk4-3" value="Controles sobre tercerización y servicios externos" style="ellipse;whiteSpace=wrap;html=1;fillColor=#d5e8d4;strokeColor=#82b366;gradientColor=light-dark(#97D077,#295A52);fontStyle=1;fontColor=light-dark(#000000,#66FFFF);" vertex="1" parent="1">
          <mxGeometry x="2250" y="1830" width="169" height="83" as="geometry" />
        </mxCell>
        <mxCell id="SYa3BNiDsuXG8DO_IZk4-4" value="Gestión del cambio" style="ellipse;whiteSpace=wrap;html=1;fillColor=#d5e8d4;strokeColor=#82b366;gradientColor=light-dark(#97D077,#295A52);fontStyle=1;fontColor=light-dark(#000000,#66FFFF);" vertex="1" parent="1">
          <mxGeometry x="2550" y="1870" width="169" height="83" as="geometry" />
        </mxCell>
        <mxCell id="SYa3BNiDsuXG8DO_IZk4-5" value="Controles operacionales en procesos críticos" style="ellipse;whiteSpace=wrap;html=1;fillColor=#d5e8d4;strokeColor=#82b366;gradientColor=light-dark(#97D077,#295A52);fontStyle=1;fontColor=light-dark(#000000,#66FFFF);" vertex="1" parent="1">
          <mxGeometry x="2719" y="1770" width="175" height="99" as="geometry" />
        </mxCell>
        <mxCell id="SYa3BNiDsuXG8DO_IZk4-6" value="Procedimientos documentados" style="ellipse;whiteSpace=wrap;html=1;fillColor=#d5e8d4;strokeColor=#82b366;gradientColor=light-dark(#97D077,#295A52);fontStyle=1;fontColor=light-dark(#000000,#66FFFF);" vertex="1" parent="1">
          <mxGeometry x="2150" y="1620" width="175" height="99" as="geometry" />
        </mxCell>
        <mxCell id="SYa3BNiDsuXG8DO_IZk4-7" value="" style="curved=1;endArrow=classic;html=1;rounded=0;fillColor=#ffcd28;gradientColor=#ffa500;strokeColor=#d79b00;exitX=0;exitY=0;exitDx=0;exitDy=0;entryX=0.977;entryY=0.333;entryDx=0;entryDy=0;entryPerimeter=0;" edge="1" parent="1" source="SYa3BNiDsuXG8DO_IZk4-1" target="SYa3BNiDsuXG8DO_IZk4-6">
          <mxGeometry width="50" height="50" relative="1" as="geometry">
            <mxPoint x="1876" y="1615" as="sourcePoint" />
            <mxPoint x="1580" y="1730" as="targetPoint" />
            <Array as="points">
              <mxPoint x="2400" y="1682" />
              <mxPoint x="2350" y="1620" />
            </Array>
          </mxGeometry>
        </mxCell>
        <mxCell id="SYa3BNiDsuXG8DO_IZk4-8" value="" style="curved=1;endArrow=classic;html=1;rounded=0;fillColor=#ffcd28;gradientColor=#ffa500;strokeColor=#d79b00;entryX=0.5;entryY=0;entryDx=0;entryDy=0;exitX=1.015;exitY=0.387;exitDx=0;exitDy=0;fontStyle=1;fontColor=light-dark(#000000,#66FFFF);exitPerimeter=0;" edge="1" parent="1" source="SYa3BNiDsuXG8DO_IZk4-1" target="SYa3BNiDsuXG8DO_IZk4-5">
          <mxGeometry width="50" height="50" relative="1" as="geometry">
            <mxPoint x="2603.5" y="1884" as="sourcePoint" />
            <mxPoint x="2618.5" y="1794" as="targetPoint" />
            <Array as="points">
              <mxPoint x="2690" y="1660" />
              <mxPoint x="2790" y="1720" />
            </Array>
          </mxGeometry>
        </mxCell>
        <mxCell id="SYa3BNiDsuXG8DO_IZk4-9" value="" style="curved=1;endArrow=classic;html=1;rounded=0;fillColor=#ffcd28;gradientColor=#ffa500;strokeColor=#d79b00;entryX=0.5;entryY=0;entryDx=0;entryDy=0;exitX=0.578;exitY=0.989;exitDx=0;exitDy=0;exitPerimeter=0;fontStyle=1;fontColor=light-dark(#000000,#66FFFF);" edge="1" parent="1" source="SYa3BNiDsuXG8DO_IZk4-1" target="SYa3BNiDsuXG8DO_IZk4-4">
          <mxGeometry width="50" height="50" relative="1" as="geometry">
            <mxPoint x="2610.5" y="1935" as="sourcePoint" />
            <mxPoint x="2662.5" y="1843" as="targetPoint" />
            <Array as="points">
              <mxPoint x="2557.5" y="1794" />
              <mxPoint x="2650" y="1794" />
            </Array>
          </mxGeometry>
        </mxCell>
        <mxCell id="SYa3BNiDsuXG8DO_IZk4-10" value="" style="curved=1;endArrow=classic;html=1;rounded=0;fillColor=#ffcd28;gradientColor=#ffa500;strokeColor=#d79b00;exitX=0.078;exitY=0.811;exitDx=0;exitDy=0;exitPerimeter=0;fontStyle=1;fontColor=light-dark(#000000,#66FFFF);" edge="1" parent="1" source="SYa3BNiDsuXG8DO_IZk4-1" target="SYa3BNiDsuXG8DO_IZk4-3">
          <mxGeometry width="50" height="50" relative="1" as="geometry">
            <mxPoint x="2538.5" y="1973" as="sourcePoint" />
            <mxPoint x="2681.5" y="1941" as="targetPoint" />
            <Array as="points">
              <mxPoint x="2417.5" y="1794" />
              <mxPoint x="2360" y="1740" />
            </Array>
          </mxGeometry>
        </mxCell>
        <mxCell id="SYa3BNiDsuXG8DO_IZk4-12" value="" style="curved=1;endArrow=classic;html=1;rounded=0;fillColor=#e6d0de;gradientColor=#d5739d;strokeColor=#996185;startSize=20;endSize=14;fontStyle=0;dashed=1;dashPattern=8 8;startArrow=none;startFill=0;exitX=0.369;exitY=0.955;exitDx=0;exitDy=0;exitPerimeter=0;" edge="1" parent="1" source="u9baPHzRedg1W3_j4SZ9-66" target="SYa3BNiDsuXG8DO_IZk4-1">
          <mxGeometry width="50" height="50" relative="1" as="geometry">
            <mxPoint x="2110" y="1140" as="sourcePoint" />
            <mxPoint x="2092" y="1350" as="targetPoint" />
            <Array as="points">
              <mxPoint x="2130" y="1230" />
              <mxPoint x="2300" y="1330" />
              <mxPoint x="2340" y="1370" />
            </Array>
          </mxGeometry>
        </mxCell>
      </root>
    </mxGraphModel>
  </diagram>
</mxfile>
